<?xml version="1.0" standalone="no"?>
<!DOCTYPE svg PUBLIC "-//W3C//DTD SVG 20010904//EN"
 "http://www.w3.org/TR/2001/REC-SVG-20010904/DTD/svg10.dtd">
<svg version="1.0" xmlns="http://www.w3.org/2000/svg"
 width="512.000000pt" height="512.000000pt" viewBox="0 0 512.000000 512.000000"
 preserveAspectRatio="xMidYMid meet">
<metadata>
Created by potrace 1.11, written by Peter Selinger 2001-2013
</metadata>
<g transform="translate(0.000000,512.000000) scale(0.100000,-0.100000)"
fill="#000000" stroke="none">
<path d="M1288 4325 c-2 -1 -38 -5 -81 -9 -91 -8 -273 -53 -367 -91 -81 -33
-208 -100 -237 -124 -133 -112 -314 -705 -473 -1556 -6 -33 -13 -69 -15 -80
-2 -11 -6 -38 -10 -60 -6 -41 -11 -77 -20 -130 -18 -107 -36 -232 -45 -305
-11 -99 -20 -173 -26 -215 -9 -66 -11 -354 -2 -420 29 -231 129 -409 270 -481
189 -97 359 -74 585 78 100 67 195 148 353 301 156 151 222 202 323 250 123
60 298 119 422 143 22 4 45 8 50 10 6 1 42 7 80 14 39 6 81 13 95 15 114 20
502 28 640 13 232 -25 456 -77 634 -145 178 -68 251 -119 451 -314 362 -353
595 -470 815 -409 68 19 151 64 197 108 40 38 113 141 113 159 0 4 6 19 13 33
17 33 36 105 51 203 12 73 13 349 3 437 -3 19 -8 62 -12 95 -3 33 -8 71 -10
85 -2 14 -7 48 -10 75 -5 47 -14 112 -20 145 -1 8 -6 37 -9 63 -4 27 -10 59
-12 70 -3 12 -11 65 -19 117 -16 104 -23 142 -30 180 -3 14 -8 39 -11 55 -3
17 -10 50 -15 75 -6 25 -13 56 -15 70 -2 14 -9 45 -14 70 -5 25 -12 61 -15 80
-12 73 -128 531 -167 660 -76 253 -170 460 -231 512 -31 25 -230 123 -302 147
-308 103 -613 101 -760 -5 -220 -158 -491 -222 -926 -218 -392 3 -624 59 -843
203 -106 70 -172 91 -306 95 -49 2 -91 2 -92 1z"/>
</g>
</svg>
